<?xml version="1.0" encoding="UTF-8"?>
<svg id="uuid-da9b3434-1f95-47c1-911b-f1d37c25113c" data-name="Layer 2" xmlns="http://www.w3.org/2000/svg" viewBox="0 0 559.97 559.97">
  <g id="uuid-9eed7e07-1149-4a66-bd1e-0d18d71b89b6" data-name="Layer 2">
    <path d="m471.28,81.41H97.07C146.06,35.65,211.85,7.64,284.18,7.64s138.11,28.01,187.1,73.77Z" fill="#ef3d28"/>
    <path d="m531.12,162.56H37.23c14.83-30.67,35.21-58.15,59.84-81.15h374.21c24.63,23,45.01,50.48,59.84,81.15Z" fill="#f26a21"/>
    <path d="m555.62,242.89H12.74c4.04-28.41,12.44-55.42,24.49-80.33h493.89c12.06,24.91,20.46,51.92,24.5,80.33Z" fill="#f99d22"/>
    <path d="m558.36,281.82c0,14.35-1.1,28.45-3.23,42.21H13.23c-2.13-13.76-3.23-27.86-3.23-42.21,0-13.22.93-26.22,2.74-38.93h542.88c1.81,12.71,2.74,25.71,2.74,38.93Z" fill="#fcda20"/>
    <circle cx="349.48" cy="175.18" r="57.87" fill="#fff" stroke="#231f20" stroke-miterlimit="10" stroke-width="3"/>
    <path d="m552.08,327.19c-22.02,129.36-134.64,227.83-270.27,227.83S31.16,454.44,10.86,323.05c-1.33-8.59-2.26-17.32-2.77-26.15,0,0,29.05-22.21,67.57-80.4,0,0,59.02,55.73,63.12,55.73s25.41-20.49,48.36-81.14l38.52-22.95,24.59-40.99,45.9,47.54,23.77,37.34,48.36,26.6,22.13,42.21,17.22,5.33,19.67,22.95,48.36-38.53,36.07,34.43,40.35,22.17Z" fill="#231f20" stroke="#fff" stroke-miterlimit="10" stroke-width="3"/>
    <circle cx="279.99" cy="279.99" r="271.72" fill="none" stroke="#231f20" stroke-miterlimit="10" stroke-width="16.53"/>
    <polygon points="79.67 233.05 74.76 263.38 100.99 303.54 92.79 334.69 133.77 350.26 133.77 378.13 160 394.53 196.07 387.97 294.43 401.08 205.08 357.64 178.03 317.07 154.26 311.74 79.67 233.05" fill="#fff"/>
    <polygon points="257.54 147.81 272.3 183.87 264.92 215.84 285.41 258.46 275.58 302.72 325.58 345.35 346.07 310.1 378.85 335.51 391.97 323.22 441.42 357.42 407.04 304.65 384.57 297.5 361.08 252.61 317.85 233.05 287.21 181.08 257.54 147.81" fill="#fff"/>
    <polygon points="475.81 283.55 436.32 317.07 456.06 338.01 502.02 367.97 477.17 321.67 475.81 283.55" fill="#fff"/>
  </g>
</svg>